<?xml version="1.0" standalone="no"?>
<!DOCTYPE svg PUBLIC "-//W3C//DTD SVG 20010904//EN"
 "http://www.w3.org/TR/2001/REC-SVG-20010904/DTD/svg10.dtd">
<svg version="1.0" xmlns="http://www.w3.org/2000/svg"
 width="700.000000pt" height="700.000000pt" viewBox="0 0 700.000000 700.000000"
 preserveAspectRatio="xMidYMid meet">
<metadata>
Created by potrace 1.14, written by Peter Selinger 2001-2017
</metadata>
<g transform="translate(0.000000,700.000000) scale(0.100000,-0.100000)"
fill="#000000" stroke="none">
<path d="M3300 6467 c-14 -12 -45 -38 -70 -56 -78 -59 -197 -185 -245 -261
-80 -122 -215 -426 -240 -540 -2 -8 -15 -59 -29 -112 -24 -93 -48 -216 -62
-323 -3 -27 -8 -61 -10 -75 -4 -31 -17 -217 -18 -247 -1 -80 -59 135 -90 332
-38 245 -49 371 -61 740 -4 110 -9 202 -11 204 -5 6 -76 -111 -129 -214 -79
-153 -163 -382 -189 -517 -2 -12 -9 -44 -15 -70 -31 -135 -53 -351 -54 -526
l0 -103 -25 43 c-92 160 -184 415 -219 608 -2 14 -8 41 -13 60 -5 19 -11 53
-15 75 -8 56 -36 207 -42 225 -7 22 -17 1 -58 -123 -37 -111 -69 -248 -82
-357 -16 -133 -8 -575 12 -682 3 -13 7 -43 10 -68 3 -25 7 -52 10 -60 2 -8 6
-31 9 -50 8 -54 44 -209 60 -262 8 -27 13 -48 11 -48 -6 0 -85 119 -85 129 0
6 -4 11 -10 11 -5 0 -10 4 -10 10 0 5 -19 40 -43 77 -24 38 -46 75 -50 83 -4
8 -17 31 -28 50 -79 131 -285 539 -340 674 l-24 58 -7 -33 c-30 -141 -44 -527
-25 -714 18 -190 61 -402 111 -560 19 -60 34 -111 32 -112 -5 -5 -123 104
-246 227 -151 150 -233 248 -316 375 -37 58 -69 103 -71 101 -2 -2 -4 -48 -4
-102 0 -90 3 -121 17 -223 4 -28 21 -112 39 -192 9 -40 46 -151 73 -219 235
-590 732 -1098 1321 -1350 53 -23 105 -45 116 -50 54 -24 95 -38 95 -33 0 3 6
1 13 -4 11 -10 139 -51 181 -59 10 -2 33 -8 50 -13 35 -11 165 -38 223 -46 21
-3 47 -7 58 -10 132 -26 540 -27 725 0 139 20 216 16 285 -15 27 -13 160 -47
210 -54 317 -46 605 -3 869 132 192 98 372 258 465 412 307 514 326 1157 49
1714 -235 473 -635 775 -1029 777 -278 1 -530 -127 -747 -381 -129 -151 -213
-298 -285 -495 -68 -185 -68 -186 -96 -102 -31 96 -53 229 -76 462 -11 113
-19 345 -19 550 0 207 3 273 19 480 3 33 7 87 9 120 8 95 30 244 46 305 5 19
11 46 14 60 3 20 37 157 50 205 12 45 37 185 33 185 -1 0 -13 -10 -27 -23z
m1009 -2083 c162 -37 293 -141 386 -307 50 -91 95 -230 113 -357 9 -60 9 -324
0 -375 -16 -85 -20 -102 -39 -167 -20 -70 -58 -157 -77 -180 -5 -7 -11 -17
-12 -23 -4 -18 -57 -89 -98 -131 -74 -77 -201 -148 -302 -170 -51 -11 -177
-12 -230 -2 -73 13 -185 68 -236 116 -75 71 -148 198 -187 327 -36 119 -41
147 -54 275 -40 413 83 800 298 936 120 75 275 96 438 58z"/>
<path d="M538 2069 c-22 -59 -12 -1097 12 -1181 13 -46 78 -144 122 -183 94
-85 236 -152 357 -170 305 -45 541 86 635 353 8 23 15 45 15 47 -1 5 10 72 17
110 6 29 6 213 0 260 -27 238 -243 436 -490 449 -94 5 -176 -21 -270 -87 -37
-26 -71 -45 -74 -42 -3 3 -7 73 -8 156 -2 136 -4 155 -26 197 -32 65 -89 93
-202 99 -65 4 -84 2 -88 -8z m677 -579 c116 -55 185 -199 181 -376 -5 -178
-88 -293 -235 -325 -123 -26 -239 61 -294 221 -24 71 -26 196 -4 271 50 167
224 271 352 209z"/>
<path d="M1762 1967 l3 -112 45 -2 c25 -2 101 -4 169 -5 l123 -3 -5 63 c-7 75
-30 119 -77 146 -28 16 -55 21 -147 23 l-113 3 2 -113z"/>
<path d="M2586 1750 c-102 -27 -187 -74 -251 -136 -214 -211 -258 -521 -112
-799 45 -84 155 -192 243 -238 212 -110 478 -73 640 88 123 122 182 266 190
465 6 150 -19 252 -92 365 -37 59 -103 130 -159 171 -134 98 -295 127 -459 84z
m247 -279 c88 -54 146 -171 154 -311 11 -183 -61 -319 -197 -367 -66 -24 -116
-22 -176 7 -180 88 -231 442 -86 602 83 92 218 123 305 69z"/>
<path d="M3815 1745 c-70 -13 -134 -34 -155 -51 -8 -6 -25 -15 -37 -18 -34
-11 -156 -134 -189 -191 l-29 -50 0 -435 0 -435 153 -3 152 -3 1 33 c0 18 2
157 4 308 6 524 6 518 52 564 86 86 283 90 362 7 49 -52 55 -81 52 -286 -8
-524 -7 -559 12 -589 l18 -27 145 2 144 2 1 61 c3 394 10 793 13 802 2 6 38
28 80 48 128 64 243 60 324 -10 74 -63 77 -79 77 -424 1 -215 5 -316 13 -341
24 -70 75 -94 205 -98 l77 -2 1 53 c2 89 -1 516 -5 648 -2 102 -7 135 -25 174
-49 112 -151 196 -295 242 -70 23 -99 27 -211 27 -153 1 -195 -11 -319 -91
l-80 -50 -40 27 c-137 92 -344 136 -501 106z"/>
<path d="M5925 1752 c-62 -5 -182 -35 -232 -58 -120 -53 -184 -121 -199 -211
l-6 -42 124 0 c114 0 127 1 144 20 43 47 105 74 180 76 40 1 87 -2 105 -7 19
-5 60 -16 91 -25 l56 -15 -4 -51 c-9 -112 -39 -133 -214 -154 -300 -36 -458
-109 -530 -245 -37 -70 -45 -203 -15 -273 18 -45 75 -109 118 -136 39 -24 146
-58 207 -66 54 -7 215 -7 250 0 14 3 50 9 80 15 145 27 275 95 328 172 58 85
62 119 65 558 2 219 -46 308 -207 385 -100 47 -224 68 -341 57z m246 -625 c6
-9 4 -73 -6 -156 -19 -166 -92 -226 -275 -224 -137 1 -211 46 -223 134 -11 88
73 182 198 219 96 28 293 46 306 27z"/>
<path d="M1759 1717 c0 -12 -1 -276 -2 -587 l-1 -565 173 -3 172 -2 -4 527
c-3 483 -5 531 -22 566 -28 60 -77 79 -207 83 -105 3 -108 3 -109 -19z"/>
</g>
</svg>
